<?xml version="1.0" encoding="UTF-8"?>
<svg id="Layer_2" xmlns="http://www.w3.org/2000/svg" version="1.1" viewBox="0 0 1335.4 1180.4">
  <!-- Generator: Adobe Illustrator 29.5.1, SVG Export Plug-In . SVG Version: 2.1.0 Build 141)  -->
  <g id="Layer_1-2">
    <path d="M419.2,320.2c45.1,30.4,89.8,60.5,135.1,91-116.6,202.5-233,404.5-349.1,606h69.5c14,0,28.1-.3,42.1,0,9.2.2,18.3,1.8,27.5,2,26.3.6,46.5-10.9,60.4-32.9,8.4-13.3,16.2-27.1,23.9-40.8,10.9-19.2,21.4-38.6,32.1-57.8,8.4-15,17-29.8,25.5-44.8,10.1-17.8,20.1-35.6,30.2-53.3,11.2-19.6,22.6-39.1,33.8-58.7,6.9-12.1,13.5-24.3,20.4-36.4,10.1-17.6,20.3-35.1,30.4-52.8,9.3-16.3,18.4-32.8,27.8-49,6.5-11.2,13.5-22,19.9-33.3,11.2-19.6,22.1-39.3,33.3-58.9,4.8-8.4,10.1-16.4,15-24.8,14.4-24.5,28.8-49,42.9-73.7,10.4-18.1,9.2-36.1-1.6-53.7-11.1-18.1-22.3-36.1-33.3-54.3-15.3-25.4-30.5-50.9-45.6-76.4-12.7-21.5-25.1-43.3-37.8-64.8-12.7-21.6-25.7-43-38.5-64.6-5.2-8.7-10-17.6-15.4-26.2-1.6-2.5-.8-4.1.2-5.9,12.1-20.5,29.5-35.2,50.5-45.7,16.2-8.1,33.5-11.6,51.8-10.3,25.1,1.7,47.2,10.4,66.6,26.7,14.2,12,25.2,26.4,34.3,42.3,15.4,26.5,30.4,53.2,45.4,79.9,12.1,21.5,23.8,43.2,35.9,64.6,13,23.1,26.3,46.1,39.4,69.1,11.3,19.9,22.5,39.9,33.8,59.9,4.3,7.7,9.5,15.1,12.8,23.2,6.7,16.6,2.5,32.1-6.6,46.9-7.7,12.5-15,25.4-22.5,38-13,22-26,43.9-38.8,65.9-10.4,17.9-20.6,35.9-31,53.8-15.2,26-30.5,51.8-45.7,77.7-17.7,30.3-35.2,60.6-52.8,90.9-12.3,21.1-24.6,42.1-36.9,63.2-12.8,21.9-25.5,43.8-38.2,65.6-13,22.3-26.2,44.6-39.1,67-14.6,25.2-28.9,50.5-43.5,75.7-14.9,25.7-29.9,51.3-44.8,76.9-11.8,20.3-23.3,40.7-35.3,60.9-5.3,8.9-9.7,18.7-18.8,24.8-6.5,4.4-13.6,7.2-21.4,7.2-114.3,0-228.7.2-343-.1-19.5,0-38.7-3.6-57.1-10.8-13.8-5.4-26-13.3-36.5-23.5-13.6-13.3-21.4-30-24.8-48.8-4.2-23,.3-44.8,7.9-66.3,6.6-18.6,17.9-34.8,27.2-52,10-18.5,20.9-36.4,31.4-54.6,10.7-18.4,21.5-36.7,32.1-55.2,11.8-20.6,23.3-41.4,35.2-62,10.2-17.8,20.7-35.4,30.9-53.1,8.2-14.2,16.1-28.7,24.3-42.9,10.6-18.5,21.3-36.9,31.9-55.3,10.9-19,21.6-38.1,32.4-57.1,11-19.2,22.1-38.3,33.2-57.5,12.1-21,24.1-42,36.2-62.9,5-8.6,10.5-17,15.7-25.5,16.8-27.7,33.5-55.3,50.2-83.1,9.7-16.2,19.1-32.5,29-49.4h0Z"/>
    <path d="M662.2,1180.4c125.8-217.3,251.2-434,377.2-651.6,5.7,9.7,10.9,18.4,16,27.1,9.3,16.2,18.5,32.5,27.6,48.8,7.6,13.6,14.8,27.3,22.4,40.9,8,14.4,16.3,28.7,24.4,43.1,9.6,17,19.2,34,28.8,51.1,11.4,20.1,22.8,40.2,34.1,60.4,6.7,11.9,13.1,24,19.8,35.9,11.1,19.8,22.4,39.6,33.6,59.4,8.3,14.9,16.5,29.9,24.8,44.8,9.7,17.5,19.9,34.8,29.2,52.5,10.8,20.5,24.7,39.6,31.1,62.4,6.4,22.8,6,45.2-3.1,67.2-10.5,25.2-28.6,42.1-54.5,51.4-12.8,4.6-25.5,7.3-38.9,6.5-10.8-.7-20.3-5.5-26.5-14.2-7.2-10.2-13.2-21.3-19.4-32.1-9.9-17.1-19.5-34.4-29.4-51.6-9.6-16.8-19.4-33.5-29.2-50.2-6.8-11.6-13.9-23-20.7-34.6-8.4-14.4-16.7-28.9-25.1-43.4-9.3-15.9-18.5-31.8-28.1-47.6-6.4-10.6-13.3-21-20.1-31.4-1.8-2.8-3.2-2.4-5,.4-16.9,26.1-31.3,53.6-46.6,80.6-14.3,25.2-28.8,50.3-43.1,75.5-11.1,19.6-21.9,39.4-33.2,58.9-14,24.3-28.3,48.6-42.7,72.7-2.6,4.3-6.4,8-10,11.6-4.8,4.8-11.4,3.4-17.2,4.4-2.4.4-5,0-7.5,0-54.4.3-108.9.7-163.3,1h-5.5Z"/>
  </g>
</svg>